<svg xmlns="http://www.w3.org/2000/svg" width="1200" height="630" viewBox="0 -45 1200 720"><defs><linearGradient id="bg" x1="0" y1="0" x2="1" y2="1"><stop stop-color="#fbfcfe"/><stop offset="1" stop-color="#f2f6fb"/></linearGradient><linearGradient id="blue" x1="0" y1="0" x2="1" y2="1"><stop stop-color="#246fc4"/><stop offset="1" stop-color="#5ca0e8"/></linearGradient><filter id="s"><feDropShadow dx="0" dy="7" stdDeviation="10" flood-color="#24445f" flood-opacity=".15"/></filter><style>text{font-family:Arial,Helvetica,sans-serif}.h{font-weight:700;fill:#13243a}.m{fill:#5b6b7e}.lab{font-weight:700;fill:#18324c}.tiny{font-size:13px;fill:#56687d}</style></defs><rect width="1200" height="630" fill="url(#bg)"/><text x="390" y="56" font-size="32" class="h">AI image creation for knowledge work</text><text x="485" y="88" font-size="18" class="m">From brief to trusted content inside a professional workflow</text><line x1="525" y1="108" x2="675" y2="108" stroke="#246fc4" stroke-width="3"/><line x1="575" y1="108" x2="625" y2="108" stroke="#22a36b" stroke-width="3"/><line x1="625" y1="108" x2="655" y2="108" stroke="#d99025" stroke-width="3"/>
<g filter="url(#s)"><rect x="40" y="160" width="210" height="335" rx="22" fill="#fff" stroke="#d7e0ec"/><rect x="275" y="160" width="220" height="335" rx="22" fill="#fff" stroke="#d7e0ec"/><rect x="520" y="160" width="220" height="335" rx="22" fill="#fff" stroke="#d7e0ec"/><rect x="765" y="160" width="190" height="335" rx="22" fill="#fff" stroke="#d7e0ec"/><rect x="980" y="160" width="180" height="335" rx="22" fill="#fff" stroke="#d7e0ec"/></g>
<circle cx="58" cy="142" r="16" fill="#246fc4"/><text x="53" y="148" font-size="15" fill="#fff" font-weight="700">1</text><text x="82" y="148" font-size="14" class="lab">BRIEF / PROMPT</text><circle cx="293" cy="142" r="16" fill="#246fc4"/><text x="288" y="148" font-size="15" fill="#fff" font-weight="700">2</text><text x="317" y="148" font-size="14" class="lab">AI-GENERATED VISUAL</text><circle cx="538" cy="142" r="16" fill="#22a36b"/><text x="533" y="148" font-size="15" fill="#fff" font-weight="700">3</text><text x="562" y="148" font-size="14" class="lab">OBJECT-LEVEL EDITING</text><circle cx="783" cy="142" r="16" fill="#22a36b"/><text x="778" y="148" font-size="15" fill="#fff" font-weight="700">4</text><text x="807" y="148" font-size="14" class="lab">DOCS / SLIDES</text><circle cx="998" cy="142" r="16" fill="#e0a324"/><text x="993" y="148" font-size="15" fill="#fff" font-weight="700">5</text><text x="1022" y="148" font-size="14" class="lab">HUMAN REVIEW</text>
<rect x="62" y="205" width="166" height="126" rx="14" fill="#f7f9fc" stroke="#dbe4ef"/><text x="78" y="235" font-size="14" class="m">Create an image of</text><text x="78" y="263" font-size="17" class="lab">a secure AI workspace</text><text x="78" y="289" font-size="17" class="lab">for healthcare</text><text x="78" y="316" font-size="14" class="m">professional editorial style</text><rect x="62" y="360" width="166" height="44" rx="10" fill="url(#blue)"/><text x="108" y="388" font-size="16" fill="#fff" font-weight="700">Generate</text><rect x="62" y="425" width="166" height="42" rx="10" fill="#f7f9fc" stroke="#dbe4ef"/><text x="78" y="451" font-size="14" class="m">Style: refined explainer</text>
<rect x="295" y="205" width="180" height="205" rx="14" fill="#eaf3fb" stroke="#c9d9e8"/><circle cx="345" cy="300" r="34" fill="#d4e8ef"/><path d="M329 303c10-20 22-20 33 0" fill="none" stroke="#2b6575" stroke-width="4"/><rect x="385" y="250" width="65" height="105" rx="10" fill="#fff" stroke="#cfdce9"/><rect x="396" y="265" width="44" height="8" rx="4" fill="#2478c5"/><rect x="396" y="286" width="34" height="6" rx="3" fill="#79b7ac"/><rect x="396" y="305" width="40" height="6" rx="3" fill="#a7b4c4"/><rect x="396" y="325" width="28" height="6" rx="3" fill="#d8a257"/><g class="tiny"><text x="304" y="438">4 generated variations</text></g><g fill="#dfe8f2"><rect x="302" y="452" width="35" height="24" rx="4"/><rect x="344" y="452" width="35" height="24" rx="4"/><rect x="386" y="452" width="35" height="24" rx="4"/><rect x="428" y="452" width="35" height="24" rx="4"/></g>
<rect x="540" y="205" width="180" height="48" rx="10" fill="#f7faff" stroke="#dbe4ef"/><text x="560" y="236" font-size="15" class="m">select • crop • text • draw</text><rect x="545" y="278" width="170" height="130" rx="12" fill="#edf5fb" stroke="#246fc4" stroke-dasharray="6 4"/><circle cx="585" cy="345" r="30" fill="#d6e9ed"/><rect x="625" y="310" width="70" height="58" rx="8" fill="#fff" stroke="#cfdce9"/><rect x="555" y="425" width="155" height="50" rx="10" fill="#f7faff" stroke="#dbe4ef"/><text x="570" y="447" font-size="13" class="m">brightness ━━━●</text><text x="570" y="467" font-size="13" class="m">contrast   ━●━━</text>
<rect x="790" y="205" width="140" height="215" rx="12" fill="#fbfcfe" stroke="#d8e0ea"/><text x="810" y="240" font-size="18" class="lab">AI in Healthcare</text><text x="810" y="267" font-size="13" class="m">Enhanced outcomes</text><text x="810" y="287" font-size="13" class="m">with trusted insights</text><rect x="812" y="315" width="95" height="70" rx="8" fill="#dcecf4"/><rect x="812" y="400" width="50" height="8" rx="4" fill="#c4ceda"/><rect x="812" y="420" width="70" height="8" rx="4" fill="#d4dce5"/>
<circle cx="1030" cy="220" r="24" fill="#ddeaf3"/><text x="1020" y="228" font-size="20" fill="#356a7c">●</text><text x="1065" y="222" font-size="16" class="lab">Review</text><g class="tiny"><text x="1005" y="280">✓ factual accuracy</text><text x="1005" y="320">✓ brand consistency</text><text x="1005" y="360">✓ rights / provenance</text><text x="1005" y="400">✓ accessibility</text></g><rect x="1005" y="435" width="130" height="40" rx="10" fill="#e7f5ed"/><text x="1040" y="460" font-size="15" fill="#178351" font-weight="700">Approved</text>
<g stroke="#2d78c5" stroke-width="4" fill="none" stroke-linecap="round"><path d="M250 325H275"/><path d="M495 325H520"/><path d="M740 325H765"/><path d="M955 325H980"/></g><g fill="#2d78c5"><polygon points="275,325 264,318 264,332"/><polygon points="520,325 509,318 509,332"/><polygon points="765,325 754,318 754,332"/><polygon points="980,325 969,318 969,332"/></g>
<rect x="250" y="530" width="700" height="55" rx="16" fill="#fff" stroke="#d7e0ec"/><text x="292" y="553" font-size="14" fill="#246fc4" font-weight="700">TRUSTED</text><text x="292" y="574" font-size="12" class="m">enterprise ready</text><text x="445" y="553" font-size="14" fill="#16946b" font-weight="700">SECURE</text><text x="445" y="574" font-size="12" class="m">data under control</text><text x="590" y="553" font-size="14" fill="#7650b9" font-weight="700">COLLABORATIVE</text><text x="590" y="574" font-size="12" class="m">built for teams</text><text x="785" y="553" font-size="14" fill="#d69223" font-weight="700">RESPONSIBLE</text><text x="785" y="574" font-size="12" class="m">human oversight</text></svg>