<svg role="img" aria-label="3D CT reasoning: volumetric evidence, structured findings, and clinician review" xmlns="http://www.w3.org/2000/svg" width="1200" height="630" viewBox="0 0 1200 630"><rect width="1200" height="630" fill="#ffffff"/><defs>
<filter id="shadow" x="-20%" y="-20%" width="140%" height="140%"><feDropShadow dx="0" dy="2" stdDeviation="3" flood-color="#0f172a" flood-opacity=".12"/></filter>
<marker id="arrow" markerWidth="10" markerHeight="10" refX="8" refY="3" orient="auto" markerUnits="strokeWidth"><path d="M0,0 L0,6 L9,3 z" fill="#475569"/></marker>
<style>.k{font:700 14px Inter,Arial,sans-serif;fill:#64748b;letter-spacing:1.2px}.h{font:700 29px Inter,Arial,sans-serif;fill:#0f172a}.s{font:400 15px Inter,Arial,sans-serif;fill:#475569}.t{font:700 15px Inter,Arial,sans-serif;fill:#0f172a}.b{font:400 12px Inter,Arial,sans-serif;fill:#475569}.m{font:700 12px Inter,Arial,sans-serif;fill:#334155}.tiny{font:400 10px Inter,Arial,sans-serif;fill:#64748b}</style></defs><text x="44" y="34" class="k">NVIDIA NV-REASON-CT</text><text x="44" y="69" class="h">3D CT reasoning: from volume to reviewed finding</text><text x="44" y="94" class="s">A textbook view of perception, evidence-linked reasoning, structured generation, and clinician validation.</text><g filter="url(#shadow)"><rect x="44" y="134" width="300" height="420" rx="18" fill="#f8fafc" stroke="#cbd5e1"/><rect x="365" y="134" width="380" height="420" rx="18" fill="#f8fafc" stroke="#cbd5e1"/><rect x="766" y="134" width="390" height="420" rx="18" fill="#f8fafc" stroke="#cbd5e1"/></g>
<text x="66" y="160" class="m">VOLUMETRIC INPUT</text><text x="387" y="160" class="m">3D REASONING PIPELINE</text><text x="788" y="160" class="m">STRUCTURED REVIEW</text>
<g transform="translate(80,190)"><path d="M0 65 C28 0 176 0 214 60 C185 120 40 125 0 65Z" fill="#eef2ff" stroke="#64748b" stroke-width="2"/><path d="M10 75 C38 15 166 15 204 68 C175 117 50 121 10 75Z" fill="none" stroke="#94a3b8"/><path d="M22 87 C50 31 156 31 190 77 C163 115 64 117 22 87Z" fill="none" stroke="#94a3b8"/><ellipse cx="112" cy="64" rx="43" ry="29" fill="#dbeafe" stroke="#2563eb" stroke-width="2"/><ellipse cx="118" cy="64" rx="18" ry="12" fill="#fff" stroke="#64748b"/><circle cx="150" cy="84" r="8" fill="#f59e0b"/><line x1="158" y1="84" x2="202" y2="104" stroke="#f59e0b" stroke-width="2"/><text x="10" y="150" class="t">Axial slices → 3D volume</text><text x="10" y="172" class="b">Spatial relationships are preserved</text><rect x="10" y="205" width="205" height="64" rx="10" fill="#fff" stroke="#cbd5e1"/><text x="25" y="228" class="m">INPUT SIGNALS</text><text x="25" y="249" class="b">voxel intensity · anatomy · location</text><text x="25" y="267" class="b">multi-slice continuity · region context</text></g>
<line x1="345" y1="344" x2="362" y2="344" stroke="#475569" stroke-width="3" marker-end="url(#arrow)"/>
<g transform="translate(392,190)"><rect x="0" y="0" width="320" height="68" rx="12" fill="#eef2ff" stroke="#6366f1"/><circle cx="28" cy="34" r="15" fill="#c7d2fe"/><text x="23" y="39" class="m">1</text><text x="55" y="27" class="t">Volumetric encoding</text><text x="55" y="49" class="b">3D anatomy + spatial evidence</text><line x1="160" y1="68" x2="160" y2="88" stroke="#475569" stroke-width="3" marker-end="url(#arrow)"/><rect x="0" y="92" width="320" height="68" rx="12" fill="#f5f3ff" stroke="#8b5cf6"/><circle cx="28" cy="126" r="15" fill="#ddd6fe"/><text x="23" y="131" class="m">2</text><text x="55" y="119" class="t">Evidence-linked reasoning</text><text x="55" y="141" class="b">candidate finding ↔ supporting region</text><line x1="160" y1="160" x2="160" y2="180" stroke="#475569" stroke-width="3" marker-end="url(#arrow)"/><rect x="0" y="184" width="320" height="68" rx="12" fill="#ecfeff" stroke="#0891b2"/><circle cx="28" cy="218" r="15" fill="#cffafe"/><text x="23" y="223" class="m">3</text><text x="55" y="211" class="t">Structured generation</text><text x="55" y="233" class="b">finding · location · severity · rationale</text><rect x="0" y="284" width="320" height="72" rx="10" fill="#fff" stroke="#cbd5e1"/><text x="16" y="307" class="m">TRACEABILITY</text><text x="16" y="329" class="b">Each statement maps to a region</text><text x="16" y="347" class="b">and can be reviewed independently.</text></g>
<line x1="746" y1="344" x2="763" y2="344" stroke="#475569" stroke-width="3" marker-end="url(#arrow)"/>
<g transform="translate(790,190)"><rect x="0" y="0" width="338" height="118" rx="12" fill="#fff" stroke="#cbd5e1"/><text x="16" y="24" class="m">STRUCTURED REPORT</text><rect x="16" y="40" width="250" height="10" rx="4" fill="#cbd5e1"/><rect x="16" y="60" width="292" height="10" rx="4" fill="#e2e8f0"/><rect x="16" y="80" width="218" height="10" rx="4" fill="#e2e8f0"/><circle cx="293" cy="45" r="7" fill="#22c55e"/><text x="305" y="49" class="tiny">evidence linked</text><rect x="0" y="140" width="338" height="142" rx="12" fill="#f0fdf4" stroke="#22c55e"/><text x="16" y="165" class="m">HUMAN REVIEW GATE</text><circle cx="25" cy="194" r="10" fill="#22c55e"/><text x="44" y="198" class="b">Confirm supported findings</text><circle cx="25" cy="224" r="10" fill="#f59e0b"/><text x="44" y="228" class="b">Escalate uncertainty / discordance</text><circle cx="25" cy="254" r="10" fill="#3b82f6"/><text x="44" y="258" class="b">Retain clinician responsibility</text><rect x="0" y="304" width="338" height="52" rx="10" fill="#0f172a"/><text x="17" y="327" style="font:700 12px Inter,Arial;fill:white">OUTPUT = reviewed findings + rationale + provenance</text></g><line x1="44" y1="590" x2="1156" y2="590" stroke="#e2e8f0" stroke-width="2"/><text x="44" y="611" class="tiny">Mechanism: 3D volume → spatial evidence reasoning → structured findings → human clinical review.</text></svg>