<svg xmlns="http://www.w3.org/2000/svg" width="1200" height="630" viewBox="0 0 1200 630">
<rect width="1200" height="630" fill="#f7f7ff"/>
<text x="55" y="68" fill="#1e1b4b" font-family="Arial" font-size="34" font-weight="700">OPERATIONS EXPERTS DEFINE — VALIDATION GATES RELEASE</text>
<path d="M90 155h270l70 120-70 120H90l70-120z" fill="#ddd6fe" stroke="#6d28d9" stroke-width="7"/><text x="240" y="248" fill="#4c1d95" font-family="Arial" font-size="25" text-anchor="middle" font-weight="700">PLAIN-LANGUAGE</text><text x="240" y="282" fill="#4c1d95" font-family="Arial" font-size="25" text-anchor="middle" font-weight="700">OPERATING RULES</text><text x="240" y="316" fill="#4c1d95" font-family="Arial" font-size="21" text-anchor="middle">intent · exceptions · escalation</text>
<path d="M430 275h150" stroke="#6366f1" stroke-width="10" marker-end="url(#v)"/><defs><marker id="v" markerWidth="12" markerHeight="12" refX="10" refY="6" orient="auto"><path d="M0 0l12 6-12 6z" fill="#6366f1"/></marker></defs>
<rect x="600" y="145" width="250" height="260" rx="30" fill="#fff" stroke="#2563eb" stroke-width="8"/><circle cx="725" cy="235" r="50" fill="#bfdbfe"/><path d="M695 315h60M675 350h100" stroke="#2563eb" stroke-width="14" stroke-linecap="round"/><text x="725" y="445" fill="#1e3a8a" font-family="Arial" font-size="22" text-anchor="middle">GENERATED AGENT</text>
<path d="M850 275h110" stroke="#6366f1" stroke-width="10" marker-end="url(#v)"/>
<path d="M1010 160h130v245h-130l-55-122z" fill="#dcfce7" stroke="#15803d" stroke-width="8"/><path d="M1002 280l35 38 66-82" fill="none" stroke="#15803d" stroke-width="14"/>
<text x="1055" y="460" fill="#14532d" font-family="Arial" font-size="22" text-anchor="middle">SCENARIO TESTS</text><text x="1055" y="492" fill="#14532d" font-family="Arial" font-size="22" text-anchor="middle">HUMAN RELEASE</text>
<text x="55" y="575" fill="#475569" font-family="Arial" font-size="22">No-code does not mean no governance.</text>
</svg>
