<svg xmlns="http://www.w3.org/2000/svg" width="1200" height="630"><defs><linearGradient id="g" x1="0" x2="1"><stop stop-color="#fbfaf7"/><stop offset="1" stop-color="#f2ece4"/></linearGradient></defs><rect width="1200" height="630" rx="32" fill="url(#g)"/><text x="64" y="82" font-family="Arial" font-size="34" font-weight="700" fill="#302b27">Agents as code with ant apply</text><text x="64" y="122" font-family="Arial" font-size="20" fill="#6b625b">Declarative resources, approval plans, and repeatable deployment</text><rect x="78" y="178" width="310" height="320" rx="26" fill="#fff" stroke="#ddd4ca"/><text x="120" y="225" font-family="Arial" font-size="20" font-weight="700">Repository files</text><g font-family="monospace" font-size="18" fill="#5b554f"><text x="118" y="285">agent.yaml</text><text x="118" y="330">skills.yaml</text><text x="118" y="375">memory.yaml</text><text x="118" y="420">environment.yaml</text></g><path d="M410 338h130" stroke="#9b826d" stroke-width="8"/><polygon points="530,324 558,338 530,352" fill="#9b826d"/><rect x="560" y="205" width="250" height="260" rx="26" fill="#fff" stroke="#ddd4ca"/><text x="617" y="250" font-family="Arial" font-size="24" font-weight="700">ant apply</text><rect x="608" y="290" width="154" height="58" rx="14" fill="#f5eee7"/><text x="641" y="326" font-family="Arial" font-size="18">Plan changes</text><rect x="608" y="370" width="154" height="58" rx="14" fill="#f5eee7"/><text x="630" y="406" font-family="Arial" font-size="18">Approve</text><path d="M820 338h120" stroke="#9b826d" stroke-width="8"/><polygon points="930,324 958,338 930,352" fill="#9b826d"/><rect x="960" y="178" width="165" height="320" rx="26" fill="#2f2a26"/><text x="986" y="235" font-family="Arial" font-size="20" font-weight="700" fill="#fff">Agent stack</text><g font-family="Arial" font-size="17" fill="#eee5dd"><text x="992" y="300">Agents</text><text x="992" y="345">Skills</text><text x="992" y="390">Memory</text><text x="992" y="435">Deployments</text></g><text x="70" y="560" font-family="Arial" font-size="17" fill="#6b625b">Editorial explainer • configuration → reviewed plan → stable agent resources</text></svg>