<svg xmlns="http://www.w3.org/2000/svg" width="1200" height="630" viewBox="0 -45 1200 720"><defs><linearGradient id="bg" x1="0" y1="0" x2="1" y2="1"><stop stop-color="#fbfcff"/><stop offset="1" stop-color="#f3f7fc"/></linearGradient><linearGradient id="blue" x1="0" y1="0" x2="1" y2="1"><stop stop-color="#244e9b"/><stop offset="1" stop-color="#5d76d9"/></linearGradient><linearGradient id="teal" x1="0" y1="0" x2="1" y2="1"><stop stop-color="#087e8a"/><stop offset="1" stop-color="#3bb7ae"/></linearGradient><filter id="s"><feDropShadow dx="0" dy="8" stdDeviation="11" flood-color="#293c58" flood-opacity=".15"/></filter><style>text{font-family:Arial,Helvetica,sans-serif}.h{font-weight:700;fill:#15243a}.m{fill:#5d6b7e}.lab{font-weight:700;fill:#18324c}.tiny{font-size:13px;fill:#56687c}</style></defs><rect width="1200" height="630" fill="url(#bg)"/><text x="50" y="58" font-size="32" class="h">Composable low-code agents with governed enterprise data</text><text x="50" y="88" font-size="18" class="m">A general business agent invokes a bounded specialist data agent without bypassing permissions</text>
<rect x="70" y="140" width="300" height="255" rx="26" fill="#fff" stroke="#b8ddd9" filter="url(#s)"/><rect x="105" y="118" width="145" height="38" rx="18" fill="url(#teal)"/><text x="138" y="143" font-size="14" fill="#fff" font-weight="700">SPECIALIST</text><text x="120" y="205" font-size="24" class="lab">Fabric-style</text><text x="120" y="234" font-size="24" class="lab">data agent</text><text x="120" y="266" font-size="15" class="m">Bounded to approved data</text><text x="120" y="287" font-size="15" class="m">and policy</text><g filter="url(#s)"><rect x="110" y="315" width="220" height="48" rx="11" fill="#fbfcfe" stroke="#d6e2eb"/></g><text x="142" y="345" font-size="14" class="lab">Query • analyze • return</text>
<rect x="80" y="430" width="280" height="140" rx="22" fill="#f5fffd" stroke="#b8ddd9" filter="url(#s)"/><rect x="105" y="414" width="230" height="36" rx="17" fill="url(#teal)"/><text x="130" y="438" font-size="14" fill="#fff" font-weight="700">GOVERNED ENTERPRISE DATA</text><ellipse cx="220" cy="510" rx="55" ry="18" fill="#bfe7e2"/><rect x="180" y="470" width="80" height="45" rx="6" fill="#1b9e98"/><ellipse cx="220" cy="470" rx="40" ry="12" fill="#45b9b2"/><text x="130" y="552" font-size="13" class="m">permissions preserved • auditable</text><path d="M220 430V395" stroke="#15958e" stroke-width="4"/><polygon points="220,395 212,407 228,407" fill="#15958e"/>
<rect x="455" y="130" width="350" height="420" rx="30" fill="#fff" stroke="#bac9eb" stroke-width="2" filter="url(#s)"/><rect x="505" y="108" width="250" height="52" rx="22" fill="url(#blue)"/><text x="560" y="141" font-size="17" fill="#fff" font-weight="700">ORCHESTRATOR</text><text x="535" y="205" font-size="26" class="lab">Copilot-style</text><text x="535" y="236" font-size="26" class="lab">business agent</text><text x="525" y="272" font-size="15" class="m">Decides when to invoke a specialist</text><g filter="url(#s)"><rect x="520" y="310" width="220" height="175" rx="16" fill="#fbfcfe" stroke="#d7dfed"/></g><g class="tiny"><text x="555" y="345">Understand intent</text><text x="555" y="382">Plan &amp; orchestrate</text><text x="555" y="419">Select specialist</text><text x="555" y="456">Synthesize results</text></g><g fill="#4568bd"><circle cx="538" cy="340" r="7"/><circle cx="538" cy="377" r="7"/><circle cx="538" cy="414" r="7"/><circle cx="538" cy="451" r="7"/></g><rect x="530" y="500" width="200" height="34" rx="15" fill="#eef3ff" stroke="#c5d2ed"/><text x="558" y="522" font-size="12" fill="#31599e" font-weight="700">POLICY-AWARE • AUDIT-READY</text>
<path d="M370 260H455" stroke="#15958e" stroke-width="5"/><polygon points="455,260 441,251 441,269" fill="#15958e"/>
<circle cx="855" cy="330" r="18" fill="#7659c8"/><path d="M805 330H837" stroke="#7659c8" stroke-width="4"/><g stroke-width="4" fill="none"><path d="M873 330C920 330 925 180 960 180" stroke="#7559c8"/><path d="M873 330C920 330 925 280 960 280" stroke="#4f79d7"/><path d="M873 330C920 330 925 380 960 380" stroke="#d49b3a"/><path d="M873 330C920 330 925 480 960 480" stroke="#6c9668"/></g>
<g filter="url(#s)"><rect x="960" y="135" width="200" height="90" rx="18" fill="#fff" stroke="#d8d0ef"/><rect x="960" y="235" width="200" height="90" rx="18" fill="#fff" stroke="#ced9ef"/><rect x="960" y="335" width="200" height="90" rx="18" fill="#fff" stroke="#ead8b8"/><rect x="960" y="435" width="200" height="90" rx="18" fill="#fff" stroke="#d2e0ce"/></g><text x="990" y="170" font-size="17" class="lab">Teams / M365</text><text x="990" y="195" font-size="13" class="m">summaries • notifications</text><text x="990" y="270" font-size="17" class="lab">Microsoft 365</text><text x="990" y="295" font-size="13" class="m">Docs • Outlook • Excel</text><text x="990" y="370" font-size="17" class="lab">Business workflows</text><text x="990" y="395" font-size="13" class="m">automations • line of business</text><text x="990" y="470" font-size="17" class="lab">Human review</text><text x="990" y="495" font-size="13" class="m">review • validate • approve</text>
<rect x="330" y="585" width="570" height="28" rx="14" fill="#fff" stroke="#d7dfeb"/><text x="370" y="603" font-size="12" fill="#2e5ca4" font-weight="700">SECURE</text><text x="485" y="603" font-size="12" fill="#16887c" font-weight="700">COMPLIANT</text><text x="610" y="603" font-size="12" fill="#7458bb" font-weight="700">TRANSPARENT</text><text x="750" y="603" font-size="12" fill="#aa7a2b" font-weight="700">HUMAN OVERSIGHT</text></svg>